<?xml version="1.0" encoding="utf-8"?>
<!-- generated at drububu.com  -->
<!DOCTYPE svg PUBLIC "-//W3C//DTD SVG 1.1//EN" "http://www.w3.org/Graphics/SVG/1.1/DTD/svg11.dtd">
<svg version="1.1" preserveAspectRatio="xMinYMin meet" xmlns="http://www.w3.org/2000/svg" xmlns:xlink="http://www.w3.org/1999/xlink" x="0px" y="0px" width="16px" height="32px" viewBox="0 0 16 32">
<path d="M0 0h16v32h-7v-1h4v-2h-2v-5h-1v-4h1v-6h-1v-1h1v-1h-1v-1h1v-1h-1v-3h-1
	v-1h-1v-1h-2v1h-1v1h-1v2h1v2h-1v2h1v1h-1v6h1v4h-1v5h-1v2h3v1h-6v-32z" fill="rgb(195,195,195)"/>
<path d="M6 5h2v1h1v1h1v3h1v1h-1v1h1v1h-2v-1h-1v-2h1v-2h-1v-1h-2v4h1v1h-1v1h-2
	v-2h1v-2h-1v-2h1v-1h1v-1z" fill="rgb(255,127,39)"/>
<path d="M6 7h2v1h1v2h-1v2h1v2h-1v1h-1v-1h-1v-2h1v-1h-1v-4z" fill="rgb(255,174,201)"/>
<path d="M5 13h1v1h1v1h1v-1h1v-1h1v6h-1v-1h-1v-1h-1v1h-1v1h-1v-6z" fill="rgb(255,255,255)"/>
<path d="M4 14h1v5h1v1h-2v-6z" fill="rgb(255,174,201)"/>
<path d="M10 14h1v6h-2v-1h1v-5z" fill="rgb(255,174,201)"/>
<path d="M7 17h1v1h1v3h-2v-1h-1v-2h1v-1z" fill="rgb(237,28,36)"/>
<path d="M5 20h2v1h2v-1h1v4h1v5h2v2h-10v-2h1v-5h1v-4z" fill="rgb(255,255,255)"/>
<path d="M6 31h1v1h-1v-1z" fill="rgb(127,127,127)"/>
<path d="M7 31h1v1h-1v-1z" fill="rgb(195,195,195)"/>
<path d="M8 31h1v1h-1v-1z" fill="rgb(127,127,127)"/>
</svg>